<?xml version="1.0" encoding="UTF-8"?>
<svg width="55px" height="68px" viewBox="0 0 55 68" version="1.1" xmlns="http://www.w3.org/2000/svg" xmlns:xlink="http://www.w3.org/1999/xlink">
    <!-- Generator: Sketch 63.1 (92452) - https://sketch.com -->
    <title>Hand Icon-Abuse</title>
    <desc>Created with Sketch.</desc>
    <defs>
        <path d="M36.2356696,31.6418884 L36.2356696,31.1557274 C36.2356696,22.8564301 36.2342103,14.5571328 36.2369829,6.25783549 C36.2377125,4.24728096 37.4080128,2.59952449 39.2342357,2.01260239 C42.064261,1.10312831 44.910046,3.18557168 44.9201146,6.19498743 C44.9335395,10.1806624 44.9236168,14.1661916 44.9236168,18.1518666 C44.9236168,22.5020895 44.9234709,26.8521666 44.9234709,31.2023895 L44.9234709,31.6639071 L46.1429471,31.6639071 L46.1429471,31.2220751 C46.1428012,26.215666 46.1406123,21.2094027 46.1439685,16.2029936 C46.1454278,14.1715869 47.2839169,12.5350585 49.1022599,11.9275759 C51.9623454,10.9721688 54.8206797,13.0742978 54.8294351,16.1605602 C54.8416926,20.4378735 54.8327913,24.7151869 54.8327913,28.9923544 C54.8327913,37.9842926 54.8307484,46.9762309 54.8339587,55.9681692 C54.8349801,58.7177352 54.1034695,61.228012 52.3583796,63.3827817 C50.4262168,65.7685289 47.9288953,67.0241777 44.8243893,67.0218133 C40.6414658,67.0177512 37.8857612,67.0177512 36.5572755,67.0218133 L36.2356696,31.6418884 Z" id="path-1"></path>
        <filter x="-94.1%" y="-19.2%" width="288.2%" height="153.7%" filterUnits="objectBoundingBox" id="filter-2">
            <feOffset dx="0" dy="5" in="SourceAlpha" result="shadowOffsetOuter1"></feOffset>
            <feGaussianBlur stdDeviation="5" in="shadowOffsetOuter1" result="shadowBlurOuter1"></feGaussianBlur>
            <feColorMatrix values="0 0 0 0 0   0 0 0 0 0   0 0 0 0 0  0 0 0 0.25 0" type="matrix" in="shadowBlurOuter1"></feColorMatrix>
        </filter>
    </defs>
    <g id="Hand-Icon-Abuse" stroke="none" stroke-width="1" fill="none" fill-rule="evenodd">
        <path d="M16.4073978,44.1648376 L16.4073978,43.633181 C16.4073978,32.3687969 16.4068142,21.1045587 16.4078356,9.84032053 C16.4079815,7.67432278 17.8070886,5.93032566 19.8879467,5.49184746 C22.5292939,4.93525574 25.0757914,6.96024637 25.0870275,9.66664991 C25.1057056,14.1868979 25.0930103,18.7072918 25.0933021,23.2275398 C25.0934481,25.9008424 25.0933021,28.574145 25.0933021,31.2474476 L25.0933021,31.6639071 L26.3225552,31.6639071 L26.3225552,31.1627267 C26.3225552,22.243698 26.3208041,13.3245235 26.3240144,4.40549474 C26.324744,2.28805477 27.7031301,0.554702458 29.7231384,0.105433637 C32.4143912,-0.49329982 34.9875925,1.5324199 35.0040818,4.29540128 C35.0237813,7.57618648 35.0094809,10.8571175 35.0094809,14.1379027 C35.0096268,19.812601 35.0094809,25.4871535 35.0094809,31.1618518 L35.0094809,31.6418884 L36.2356696,31.6418884 L36.2356696,31.1557274 C36.2356696,22.8564301 36.2342103,14.5571328 36.2369829,6.25783549 C36.2377125,4.24728096 37.4080128,2.59952449 39.2342357,2.01260239 C42.064261,1.10312831 44.910046,3.18557168 44.9201146,6.19498743 C44.9335395,10.1806624 44.9236168,14.1661916 44.9236168,18.1518666 C44.9236168,22.5020895 44.9234709,26.8521666 44.9234709,31.2023895 L44.9234709,31.6639071 L46.1429471,31.6639071 L46.1429471,31.2220751 C46.1428012,26.215666 46.1406123,21.2094027 46.1439685,16.2029936 C46.1454278,14.1715869 47.2839169,12.5350585 49.1022599,11.9275759 C51.9623454,10.9721688 54.8206797,13.0742978 54.8294351,16.1605602 C54.8416926,20.4378735 54.8327913,24.7151869 54.8327913,28.9923544 C54.8327913,37.9842926 54.8307484,46.9762309 54.8339587,55.9681692 C54.8349801,58.7177352 54.1034695,61.228012 52.3583796,63.3827817 C50.4262168,65.7685289 47.9288953,67.0241777 44.8243893,67.0216718 C38.550004,67.0157202 32.2754727,67.0276773 26.0009415,67.0171784 C25.201139,67.015866 24.3879117,66.9985135 23.6044526,66.8576522 C21.6222383,66.501416 20.1043501,65.3387999 18.8171657,63.8628184 C13.0578876,57.2583771 7.3114507,50.6427078 1.56019834,44.0309756 C-1.42100294,41.1475476 0.194653476,36.5886575 3.67184609,35.121571 C5.71388871,34.2600714 8.13751925,34.5941431 9.74908982,36.5144356 C11.8349093,38.9996314 13.9986514,41.4193545 16.1294151,43.8667832 C16.1987283,43.9464005 16.2732949,44.0214974 16.4073978,44.1648376" id="Fill-1" fill="#507EA2"></path>
        <g id="Fill-1">
            <use fill="black" fill-opacity="1" filter="url(#filter-2)" xlink:href="#path-1"></use>
            <use fill="#507EA2" fill-rule="evenodd" xlink:href="#path-1"></use>
        </g>
    </g>
</svg>