<?xml version="1.0" encoding="UTF-8"?>
<svg width="28px" height="25px" viewBox="0 0 28 25" version="1.1" xmlns="http://www.w3.org/2000/svg" xmlns:xlink="http://www.w3.org/1999/xlink">
    <!-- Generator: Sketch 63.1 (92452) - https://sketch.com -->
    <title>LinkedIn Icon</title>
    <desc>Created with Sketch.</desc>
    <defs>
        <path d="M14.4910394,0 L24.8673835,0 C26.5242378,-3.04359188e-16 27.8673835,1.34314575 27.8673835,3 L27.8673835,22 C27.8673835,23.6568542 26.5242378,25 24.8673835,25 L14.4910394,25 L14.4910394,25 L14.4910394,0 Z" id="path-1"></path>
        <filter x="-71.0%" y="-22.0%" width="242.0%" height="176.0%" filterUnits="objectBoundingBox" id="filter-2">
            <feOffset dx="0" dy="4" in="SourceAlpha" result="shadowOffsetOuter1"></feOffset>
            <feGaussianBlur stdDeviation="2.5" in="shadowOffsetOuter1" result="shadowBlurOuter1"></feGaussianBlur>
            <feColorMatrix values="0 0 0 0 0   0 0 0 0 0   0 0 0 0 0  0 0 0 0.2 0" type="matrix" in="shadowBlurOuter1"></feColorMatrix>
        </filter>
    </defs>
    <g id="LinkedIn-Icon" stroke="none" stroke-width="1" fill="none" fill-rule="evenodd">
        <rect id="Rectangle-Copy-20" fill="#2F9D98" x="-1.04805054e-13" y="0" width="27.8673835" height="25" rx="3"></rect>
        <path d="M6.7188799,7.79381443 C7.03824165,7.79381443 7.33917869,7.74316037 7.62169101,7.64185225 C7.90420332,7.54054413 8.1519134,7.40430218 8.36482123,7.23312639 C8.57772907,7.0619506 8.7455987,6.86282774 8.86843015,6.63575782 C8.99126159,6.40868789 9.05267731,6.16589774 9.05267731,5.90738737 C9.05267731,5.64189022 8.99126159,5.39386 8.86843015,5.16329669 C8.7455987,4.93273338 8.57772907,4.73011714 8.36482123,4.55544797 C8.1519134,4.3807788 7.90420332,4.24453684 7.62169101,4.14672211 C7.33917869,4.04890737 7.03824165,4 6.7188799,4 C6.40770692,4 6.11700584,4.04890737 5.84677666,4.14672211 C5.57654749,4.24453684 5.33702618,4.3807788 5.12821272,4.55544797 C4.91939927,4.73011714 4.75562401,4.93273338 4.63688695,5.16329669 C4.51814989,5.39386 4.45878136,5.64189022 4.45878136,5.90738737 C4.45878136,6.16589774 4.51814989,6.40868789 4.63688695,6.63575782 C4.75562401,6.86282774 4.91939927,7.0619506 5.12821272,7.23312639 C5.33702618,7.40430218 5.57654749,7.54054413 5.84677666,7.64185225 C6.11700584,7.74316037 6.40770692,7.79381443 6.7188799,7.79381443 Z M8.66985265,20 L8.66985265,8.94845361 L4.84160602,8.94845361 L4.84160602,20 L8.66985265,20 Z M15.5830959,20 L15.5830959,12.1282149 C15.9226152,11.865467 16.2786964,11.6559788 16.6513396,11.4997503 C17.0239828,11.3435219 17.4214688,11.2654076 17.8437977,11.2654076 C18.4069029,11.2654076 18.8333723,11.4163101 19.1232059,11.7181152 C19.4130394,12.0199202 19.5579562,12.4406719 19.5579562,12.9803703 L19.5579562,12.9803703 L19.5579562,20 L23.4086022,20 L23.4086022,12.9803703 C23.4086022,12.3767602 23.3133711,11.8175333 23.1229091,11.3026894 C22.932447,10.7878456 22.6508944,10.3440146 22.2782512,9.97119668 C21.9056081,9.59837871 21.4480851,9.30722563 20.9056823,9.09773744 C20.3632795,8.88824925 19.7401373,8.78350515 19.0362558,8.78350515 C18.6222078,8.78350515 18.2392135,8.8172363 17.8872727,8.8846986 C17.535332,8.9521609 17.2082341,9.04447773 16.9059791,9.16164909 C16.6037241,9.27882045 16.3201012,9.42262167 16.0551106,9.59305274 C15.7901199,9.76348381 15.5334101,9.94811747 15.2849814,10.1469537 L15.2849814,10.1469537 L15.0613955,9.50783721 C14.9951478,9.32320355 14.8812846,9.1847283 14.7198059,9.09241147 C14.5583272,9.00009464 14.357514,8.95393623 14.1173661,8.95393623 L14.1173661,8.95393623 L11.7324499,8.95393623 L11.7324499,20 L15.5830959,20 Z" id="in" fill="#FFFFFF" fill-rule="nonzero"></path>
        <g id="Rectangle-Copy-21">
            <use fill="black" fill-opacity="1" filter="url(#filter-2)" xlink:href="#path-1"></use>
            <use fill="#2F9D98" fill-rule="evenodd" xlink:href="#path-1"></use>
        </g>
        <path d="M15.7852486,20 L15.7852486,12.2801519 C16.1159973,12.0224755 16.46288,11.8170307 16.8258969,11.6638177 C17.1889137,11.5106046 17.5761316,11.4339981 17.9875507,11.4339981 C18.5361095,11.4339981 18.9515621,11.581988 19.2339085,11.8779677 C19.516255,12.1739475 19.6574282,12.586578 19.6574282,13.1158594 L19.6574282,20 L23.4086022,20 L23.4086022,13.1158594 C23.4086022,12.5239 23.3158312,11.9754669 23.1302892,11.4705603 C22.9447473,10.9656537 22.6704679,10.5303894 22.3074511,10.1647673 C21.9444342,9.7991453 21.4987302,9.5136119 20.9703391,9.30816714 C20.4419479,9.10272238 19.8349031,9 19.1492046,9 C18.7458526,9 18.3727519,9.03308009 18.0299027,9.09924027 C17.6870535,9.16540044 17.3684053,9.25593542 17.0739584,9.3708452 C16.7795114,9.48575499 16.5032152,9.62678063 16.2450699,9.79392213 C15.9869246,9.96106363 15.7368463,10.1421336 15.4948351,10.337132 L15.277025,9.71035138 C15.2124887,9.52928142 15.1015669,9.39347895 14.9442596,9.30294397 C14.7869523,9.21240899 14.7249836,9.16176471 14.4910394,9.16176471 C14.4910394,9.16176471 14.4910394,12.7745098 14.4910394,20 L15.7852486,20 Z" id="n" fill="#FFFFFF" fill-rule="nonzero"></path>
    </g>
</svg>