<?xml version="1.0" encoding="UTF-8"?>
<svg width="14px" height="16px" viewBox="0 0 14 16" version="1.1" xmlns="http://www.w3.org/2000/svg" xmlns:xlink="http://www.w3.org/1999/xlink">
    <!-- Generator: Sketch 63.1 (92452) - https://sketch.com -->
    <title>NavBar-Notifications Icon</title>
    <desc>Created with Sketch.</desc>
    <defs>
        <path d="M7,-8.8817842e-16 C8.13320755,-8.8817842e-16 9.0590566,0.892301887 9.11083019,2.01177358 C11.0853585,2.84675472 12.4150943,4.79460377 12.4150943,6.99973585 L12.4150943,9.77860377 C13.3002642,9.84649057 14,10.587434 14,11.490566 L14,12.5479623 C14,13.0590943 13.5850189,13.4716981 13.0746792,13.4716981 L9.50943396,13.4716981 C9.50943396,14.8576981 8.386,15.9811321 7,15.9811321 C5.614,15.9811321 4.49056604,14.8576981 4.49056604,13.4716981 L0.925056604,13.4716981 C0.413660377,13.4716981 0,13.0588302 0,12.5479623 L0,11.490566 C0,10.5884906 0.698943396,9.84649057 1.58490566,9.77860377 L1.58490566,6.99973585 C1.58490566,4.79566038 2.91490566,2.84728302 4.88916981,2.01203774 C4.9409434,0.892301887 5.86758491,-8.8817842e-16 7,-8.8817842e-16 Z" id="path-1"></path>
        <filter x="-71.4%" y="-31.3%" width="242.9%" height="225.1%" filterUnits="objectBoundingBox" id="filter-2">
            <feOffset dx="0" dy="5" in="SourceAlpha" result="shadowOffsetOuter1"></feOffset>
            <feGaussianBlur stdDeviation="2.5" in="shadowOffsetOuter1" result="shadowBlurOuter1"></feGaussianBlur>
            <feColorMatrix values="0 0 0 0 0   0 0 0 0 0   0 0 0 0 0  0 0 0 0.1 0" type="matrix" in="shadowBlurOuter1"></feColorMatrix>
        </filter>
        <path d="M7,-8.8817842e-16 C8.13320755,-8.8817842e-16 9.0590566,0.892301887 9.11083019,2.01177358 C11.0853585,2.84675472 12.4150943,4.79460377 12.4150943,6.99973585 L12.4150943,9.77860377 C13.3002642,9.84649057 14,10.587434 14,11.490566 L14,12.5479623 C14,13.0590943 13.5850189,13.4716981 13.0746792,13.4716981 L9.50943396,13.4716981 C9.50943396,14.8576981 8.386,15.9811321 7,15.9811321 C7,15.75 7,-8.8817842e-16 7,-8.8817842e-16 Z" id="path-3"></path>
        <filter x="-250.0%" y="-78.2%" width="600.0%" height="319.0%" filterUnits="objectBoundingBox" id="filter-4">
            <feOffset dx="0" dy="5" in="SourceAlpha" result="shadowOffsetOuter1"></feOffset>
            <feGaussianBlur stdDeviation="5" in="shadowOffsetOuter1" result="shadowBlurOuter1"></feGaussianBlur>
            <feColorMatrix values="0 0 0 0 0   0 0 0 0 0   0 0 0 0 0  0 0 0 0.5 0" type="matrix" in="shadowBlurOuter1"></feColorMatrix>
        </filter>
    </defs>
    <g id="NavBar-Notifications-Icon" stroke="none" stroke-width="1" fill="none" fill-rule="evenodd">
        <g id="Path-Copy-4">
            <use fill="black" fill-opacity="1" filter="url(#filter-2)" xlink:href="#path-1"></use>
            <use fill="#FFFFFF" fill-rule="evenodd" xlink:href="#path-1"></use>
        </g>
        <g id="Path-Copy-5">
            <use fill="black" fill-opacity="1" filter="url(#filter-4)" xlink:href="#path-3"></use>
            <use fill="#FFFFFF" fill-rule="evenodd" xlink:href="#path-3"></use>
        </g>
    </g>
</svg>