<?xml version="1.0" encoding="UTF-8"?>
<svg width="22px" height="38px" viewBox="0 0 22 38" version="1.1" xmlns="http://www.w3.org/2000/svg" xmlns:xlink="http://www.w3.org/1999/xlink">
    <!-- Generator: Sketch 63.1 (92452) - https://sketch.com -->
    <title>Notifications-Event Announcement Icon</title>
    <desc>Created with Sketch.</desc>
    <defs>
        <path d="M21.6381061,38.0000013 L-3.89022148e-13,38.0000013 L-3.89022148e-13,33.1498576 C3.45558773,33.1501317 5.92825272,33.1500632 7.41799499,33.1496521 C8.23140603,33.1494465 8.23189618,33.1486243 8.23214126,32.4441814 C8.23214126,31.6877327 8.22037756,30.931284 8.23777803,30.1754519 C8.24439512,29.8852058 8.13974718,29.7548829 7.78512055,29.6590934 C3.6295925,28.5363426 2.05260633,26.1950516 1.14974213,22.597809 C1.02965433,22.1194785 0.978678288,21.6203868 0.976962748,21.1309563 C0.96809022,18.4302827 0.967218571,12.903204 0.967544716,9.55338529 C0.968210548,2.7146421 5.39656744,1.31148118e-06 10.8248744,1.31148118e-06 C16.2532812,1.31148118e-06 20.6816381,2.7146421 20.6816381,9.50036084 C20.6816381,13.2821035 20.6795241,16.8921712 20.6756029,20.6737981 C20.6711915,25.002206 18.7001213,28.3922474 13.7821583,29.6617657 C13.4481181,29.7480995 13.3483717,29.8753391 13.3518028,30.1431795 C13.3625862,30.9816454 13.377781,31.8207279 13.3456759,32.6585771 C13.330236,33.0651683 13.5248273,33.1582855 13.9674366,33.1558188 C15.509462,33.1470484 18.0663518,33.1450613 21.6381061,33.1498576 L21.6381061,38.0000013 Z" id="path-1"></path>
        <filter x="-46.2%" y="-13.2%" width="192.4%" height="152.6%" filterUnits="objectBoundingBox" id="filter-2">
            <feOffset dx="0" dy="5" in="SourceAlpha" result="shadowOffsetOuter1"></feOffset>
            <feGaussianBlur stdDeviation="2.5" in="shadowOffsetOuter1" result="shadowBlurOuter1"></feGaussianBlur>
            <feColorMatrix values="0 0 0 0 0   0 0 0 0 0   0 0 0 0 0  0 0 0 0.1 0" type="matrix" in="shadowBlurOuter1"></feColorMatrix>
        </filter>
        <path d="M10.6410869,19.9205216 L10.6410869,18.3601354 L7.32070887,18.3601354 C7.32070887,17.7098443 7.30210179,17.1110681 7.34084829,16.516306 C7.34653987,16.4286639 7.62148678,16.2970893 7.77494043,16.2921831 C8.5266663,16.2687673 9.27970561,16.2812557 10.0323071,16.2810327 C10.2212237,16.2808097 10.4101402,16.2810327 10.631455,16.2810327 L10.631455,14.7030288 L7.35113691,14.7030288 L7.35113691,12.9078152 L10.6375844,12.9078152 L10.6375844,11.3041654 L7.25306668,11.3041654 C7.31983324,10.0149567 7.24496713,8.76923458 7.47875956,7.5868467 C7.81718944,5.87526106 9.57829446,4.81619654 11.389748,5.02649299 C12.9952103,5.21270459 14.3703827,6.73584855 14.3784823,8.43717582 C14.3999351,12.8228492 14.4040944,17.2089686 14.376731,21.594642 C14.3644722,23.5305735 12.7480646,25.0222734 10.7930082,24.9997496 C8.89574313,24.9776718 7.34172392,23.4224147 7.31217151,21.5159202 C7.28765395,19.9205216 7.28765395,19.9205216 8.85305631,19.9205216 C9.42921894,19.9205216 10.0053816,19.9205216 10.6410869,19.9205216" id="path-3"></path>
        <filter x="-490.0%" y="-125.0%" width="1080.0%" height="450.0%" filterUnits="objectBoundingBox" id="filter-4">
            <feOffset dx="0" dy="10" in="SourceAlpha" result="shadowOffsetOuter1"></feOffset>
            <feGaussianBlur stdDeviation="10" in="shadowOffsetOuter1" result="shadowBlurOuter1"></feGaussianBlur>
            <feColorMatrix values="0 0 0 0 0   0 0 0 0 0   0 0 0 0 0  0 0 0 0.2 0" type="matrix" in="shadowBlurOuter1"></feColorMatrix>
        </filter>
        <path d="M20.6438018,38 L10.8244952,38 C10.8244952,12.6666667 10.8244952,-1.77635684e-14 10.8244952,-1.77635684e-14 C15.8392314,-0.00217916495 20.6873585,2.7144374 20.6693043,9.32891351 C20.6512501,15.9433896 20.6852433,16.8919567 20.6813198,20.673581 C20.676906,25.0019859 18.7041529,28.3920249 13.7834042,29.6615424 C13.4491749,29.7478761 13.349372,29.8751156 13.352805,30.1429559 C13.3635945,30.9814211 13.3787979,31.8205031 13.3466746,32.6583517 C13.331226,33.0649426 13.5259275,33.1580597 13.9687875,33.1555931 C15.5116863,33.1468226 18.0700244,33.1448356 21.6438018,33.1496319 L20.6438018,38 Z" id="path-5"></path>
        <filter x="-161.7%" y="-32.9%" width="423.5%" height="192.1%" filterUnits="objectBoundingBox" id="filter-6">
            <feOffset dx="0" dy="5" in="SourceAlpha" result="shadowOffsetOuter1"></feOffset>
            <feGaussianBlur stdDeviation="5" in="shadowOffsetOuter1" result="shadowBlurOuter1"></feGaussianBlur>
            <feColorMatrix values="0 0 0 0 0   0 0 0 0 0   0 0 0 0 0  0 0 0 0.4 0" type="matrix" in="shadowBlurOuter1"></feColorMatrix>
        </filter>
        <path d="M10.8224542,5.00151799 C11.0738619,5.00344881 11.2629598,5.01177381 11.389748,5.02649299 C12.9952103,5.21270459 14.3703827,6.73584855 14.3784823,8.43717582 C14.3999351,12.8228492 14.4040944,17.2089686 14.376731,21.594642 C14.3646841,23.4971086 12.8034684,24.9705689 10.8940847,24.9995658 C10.8716936,24.999802 10.8380014,24.9999201 10.7930082,24.9999201 L10.8224542,5.00151799 Z" id="path-7"></path>
        <filter x="-971.4%" y="-125.0%" width="2042.9%" height="450.0%" filterUnits="objectBoundingBox" id="filter-8">
            <feOffset dx="0" dy="10" in="SourceAlpha" result="shadowOffsetOuter1"></feOffset>
            <feGaussianBlur stdDeviation="10" in="shadowOffsetOuter1" result="shadowBlurOuter1"></feGaussianBlur>
            <feColorMatrix values="0 0 0 0 0   0 0 0 0 0   0 0 0 0 0  0 0 0 0.2 0" type="matrix" in="shadowBlurOuter1"></feColorMatrix>
        </filter>
    </defs>
    <g id="Notifications-Event-Announcement-Icon" stroke="none" stroke-width="1" fill="none" fill-rule="evenodd">
        <g id="Path-Copy-3">
            <use fill="black" fill-opacity="1" filter="url(#filter-2)" xlink:href="#path-1"></use>
            <use fill="#DB4F48" fill-rule="evenodd" xlink:href="#path-1"></use>
        </g>
        <g id="Fill-44">
            <use fill="black" fill-opacity="1" filter="url(#filter-4)" xlink:href="#path-3"></use>
            <use fill="#FFFFFF" fill-rule="evenodd" xlink:href="#path-3"></use>
        </g>
        <g id="Path-Copy-6">
            <use fill="black" fill-opacity="1" filter="url(#filter-6)" xlink:href="#path-5"></use>
            <use fill="#DB4F48" fill-rule="evenodd" xlink:href="#path-5"></use>
        </g>
        <g id="Fill-44">
            <use fill="black" fill-opacity="1" filter="url(#filter-8)" xlink:href="#path-7"></use>
            <use fill="#FFFFFF" fill-rule="evenodd" xlink:href="#path-7"></use>
        </g>
    </g>
</svg>