<?xml version="1.0" encoding="UTF-8"?>
<svg width="26px" height="26px" viewBox="0 0 26 26" version="1.1" xmlns="http://www.w3.org/2000/svg" xmlns:xlink="http://www.w3.org/1999/xlink">
    <!-- Generator: Sketch 63.1 (92452) - https://sketch.com -->
    <title>Footer-Profile Icon</title>
    <desc>Created with Sketch.</desc>
    <g id="Footer-Profile-Icon" stroke="none" stroke-width="1" fill="none" fill-rule="evenodd">
        <path d="M11.8181818,14.1818182 L14.1818182,14.1818182 C20.7088198,14.1818182 26,19.4729984 26,26 L26,26 L26,26 L0,26 C-7.9932716e-16,19.4729984 5.29118023,14.1818182 11.8181818,14.1818182 Z" id="Rectangle-Copy-31" fill="#FFFFFF"></path>
        <rect id="Rectangle-Copy-29" fill="#FFFFFF" x="5.90909091" y="0" width="13" height="13" rx="6.5"></rect>
        <path d="M13,14.1818182 L14.1818182,14.1818182 C20.7088198,14.1818182 26,19.4729984 26,26 L26,26 L26,26 L13,26 L13,14.1818182 Z" id="Rectangle-Copy-32" fill="#FFFFFF"></path>
        <path d="M13,0 C16.2635008,-5.9949537e-16 18.9090909,2.64559011 18.9090909,5.90909091 L18.9090909,7.09090909 C18.9090909,10.3544099 16.2635008,13 13,13 L13,13 L13,13 L13,0 Z" id="Rectangle-Copy-30" fill="#FFFFFF"></path>
    </g>
</svg>