<?xml version="1.0" encoding="UTF-8"?>
<svg width="46px" height="37px" viewBox="0 0 46 37" version="1.1" xmlns="http://www.w3.org/2000/svg" xmlns:xlink="http://www.w3.org/1999/xlink">
    <!-- Generator: Sketch 63.1 (92452) - https://sketch.com -->
    <title>Red Heart Icon-Love&amp;Relationships</title>
    <desc>Created with Sketch.</desc>
    <defs>
        <path d="M22.6283428,6.22984191 C22.6283428,6.46804511 22.6283428,35.0394737 22.6283428,35.0394737 C23.0009007,35.0394737 23.9100829,34.9711679 24.8637771,34.325188 C26.7712648,33.0331608 32.1658638,28.1030129 41.047574,19.5347442 C44.7274425,16.2691855 46.3059451,9.49772284 43.6743287,5.02114977 C42.2263998,2.6014433 33.1500098,-5.5012062 22.6283428,6.22984191 Z" id="path-1"></path>
        <filter x="-100.7%" y="-47.1%" width="301.3%" height="228.6%" filterUnits="objectBoundingBox" id="filter-2">
            <feOffset dx="0" dy="6" in="SourceAlpha" result="shadowOffsetOuter1"></feOffset>
            <feGaussianBlur stdDeviation="6.5" in="shadowOffsetOuter1" result="shadowBlurOuter1"></feGaussianBlur>
            <feColorMatrix values="0 0 0 0 0   0 0 0 0 0   0 0 0 0 0  0 0 0 0.2 0" type="matrix" in="shadowBlurOuter1"></feColorMatrix>
        </filter>
    </defs>
    <g id="Red-Heart-Icon-Love&amp;Relationships" stroke="none" stroke-width="1" fill="none" fill-rule="evenodd">
        <g id="Group-12-Copy-2" transform="translate(0.275542, 0.039474)"></g>
        <path d="M22.6283428,6.15701405 C11.5788246,-5.43602173 3.02776031,2.57130249 1.58248332,4.96254182 C-1.04919622,9.38415446 0.529306387,16.0782477 4.21416287,19.3053881 L20.4850992,34.08975 C21.7019589,35.1954328 23.5597781,35.1954328 24.7766378,34.08975 L41.047574,19.3053881 L41.047574,19.3053881 C44.7274425,16.0782477 46.3059451,9.38644932 43.6743287,4.96254182 C42.2263998,2.57130249 33.1500098,-5.43602173 22.6283428,6.15701405 Z" id="Fill-1-Copy-15" fill="#DB4F48"></path>
        <g id="Fill-1-Copy-16">
            <use fill="black" fill-opacity="1" filter="url(#filter-2)" xlink:href="#path-1"></use>
            <use fill="#DB4F48" fill-rule="evenodd" xlink:href="#path-1"></use>
        </g>
    </g>
</svg>