<?xml version="1.0" encoding="UTF-8"?>
<svg width="62px" height="50px" viewBox="0 0 62 50" version="1.1" xmlns="http://www.w3.org/2000/svg" xmlns:xlink="http://www.w3.org/1999/xlink">
    <!-- Generator: Sketch 63.1 (92452) - https://sketch.com -->
    <title>Teal Heart Icon-Account Confirmation</title>
    <desc>Created with Sketch.</desc>
    <defs>
        <path d="M31,8.66651552 C31,9 31,49 31,49 C31.5166756,49 32.7775599,48.9043719 34.1001749,48 C36.7455426,46.191162 44.2269527,39.2889549 56.5444052,27.2933787 C61.6477697,22.7215965 63.8368899,13.2415488 60.1872763,6.97434652 C58.1792402,3.58675747 45.5917993,-7.75695184 31,8.66651552 Z" id="path-1"></path>
        <filter x="-72.6%" y="-33.7%" width="245.2%" height="191.8%" filterUnits="objectBoundingBox" id="filter-2">
            <feOffset dx="0" dy="6" in="SourceAlpha" result="shadowOffsetOuter1"></feOffset>
            <feGaussianBlur stdDeviation="6.5" in="shadowOffsetOuter1" result="shadowBlurOuter1"></feGaussianBlur>
            <feColorMatrix values="0 0 0 0 0   0 0 0 0 0   0 0 0 0 0  0 0 0 0.2 0" type="matrix" in="shadowBlurOuter1"></feColorMatrix>
        </filter>
    </defs>
    <g id="Teal-Heart-Icon-Account-Confirmation" stroke="none" stroke-width="1" fill="none" fill-rule="evenodd">
        <path d="M30.9998057,8.49658385 C15.6758685,-7.60485474 3.81689252,3.51642889 1.81252154,6.83759463 C-1.83720246,12.9787233 0.35193142,22.276075 5.46224554,26.7582144 L28.8558061,48.0458219 C30.0731814,49.1536057 31.9334352,49.1536057 33.1508105,48.0458219 L56.544371,26.7582144 L56.544371,26.7582144 C61.6477675,22.276075 63.8369014,12.9819106 60.1872649,6.83759463 C58.1792162,3.51642889 45.5916964,-7.60485474 30.9998057,8.49658385 Z" id="Fill-1-Copy-15" fill="#2F9E99"></path>
        <g id="Fill-1-Copy-16">
            <use fill="black" fill-opacity="1" filter="url(#filter-2)" xlink:href="#path-1"></use>
            <use fill="#2F9E99" fill-rule="evenodd" xlink:href="#path-1"></use>
        </g>
    </g>
</svg>